# xmcd CD database file
#
# Track frame offsets:
#	187
#	20217
#	40770
#	63400
#	82815
#	102140
#	123890
#	151485
#	176562
#
# Disc length: 2657 seconds
#
# Revision: 1
# Processed by: cddbd v1.5.2PL0 Copyright (c) Steve Scherf et al.
# Submitted via: CDex 1.75
#
DISCID=680a5f09
DTITLE=Spyro Gyra - Alternating Currents
DYEAR=1985
DGENRE=New Age
TTITLE0=Shakedown
TTITLE1=Alternating Currents
TTITLE2=Taking the Plunge (For Jennifer)
TTITLE3=Binky's Dream No. 6
TTITLE4=PG
TTITLE5=Heartbeat
TTITLE6=Mardi Gras
TTITLE7=I Believe In You
TTITLE8=Sunflurry
EXTD=YEAR: 1985
EXTT0=
EXTT1=
EXTT2=
EXTT3=
EXTT4=
EXTT5=
EXTT6=
EXTT7=
EXTT8=
PLAYORDER=
